# xmcd CD database file
#
# Track frame offsets:
#	200
#	22842
#	43852
#	81737
#	100907
#	121757
#	144842
#	166955
#	188982
#	207675
#	229570
#	249937
#
# Disc length: 3724 seconds
#
# Revision: 0
# Processed by: cddbd v1.4PL0 Copyright (c) Steve Scherf et al.
# Submitted via: CDex 1.50beta10
#
DISCID=9c0e8a0c
DTITLE=Varios - Titanes de la Salsa
DYEAR=1996
DGENRE=Salsa
TTITLE0=la historia de maria
TTITLE1=pancho cristal
TTITLE2=el faisan
TTITLE3=ana caona
TTITLE4=los caminos de la vida
TTITLE5=musica romantica
TTITLE6=el zapato
TTITLE7=de tu piel me enamore
TTITLE8=te fuiste mi amor
TTITLE9=amor no me abandones
TTITLE10=cuñata y pora
TTITLE11=siento
EXTD=YEAR: 1996
EXTT0=
EXTT1=
EXTT2=
EXTT3=
EXTT4=
EXTT5=
EXTT6=
EXTT7=
EXTT8=
EXTT9=
EXTT10=
EXTT11=
PLAYORDER=
